<svg id="visual" viewBox="0 0 900 600" width="900" height="600" xmlns="http://www.w3.org/2000/svg" xmlns:xlink="http://www.w3.org/1999/xlink" version="1.1"><path d="M0 97L13.7 89C27.3 81 54.7 65 82 62C109.3 59 136.7 69 163.8 79C191 89 218 99 245.2 107C272.3 115 299.7 121 327 123C354.3 125 381.7 123 409 121C436.3 119 463.7 117 491 112C518.3 107 545.7 99 573 95C600.3 91 627.7 91 654.8 90C682 89 709 87 736.2 89C763.3 91 790.7 97 818 96C845.3 95 872.7 87 886.3 83L900 79L900 0L886.3 0C872.7 0 845.3 0 818 0C790.7 0 763.3 0 736.2 0C709 0 682 0 654.8 0C627.7 0 600.3 0 573 0C545.7 0 518.3 0 491 0C463.7 0 436.3 0 409 0C381.7 0 354.3 0 327 0C299.7 0 272.3 0 245.2 0C218 0 191 0 163.8 0C136.7 0 109.3 0 82 0C54.7 0 27.3 0 13.7 0L0 0Z" fill="#6198ff"></path><path d="M0 271L13.7 269C27.3 267 54.7 263 82 264C109.3 265 136.7 271 163.8 275C191 279 218 281 245.2 295C272.3 309 299.7 335 327 343C354.3 351 381.7 341 409 319C436.3 297 463.7 263 491 264C518.3 265 545.7 301 573 294C600.3 287 627.7 237 654.8 230C682 223 709 259 736.2 277C763.3 295 790.7 295 818 282C845.3 269 872.7 243 886.3 230L900 217L900 77L886.3 81C872.7 85 845.3 93 818 94C790.7 95 763.3 89 736.2 87C709 85 682 87 654.8 88C627.7 89 600.3 89 573 93C545.7 97 518.3 105 491 110C463.7 115 436.3 117 409 119C381.7 121 354.3 123 327 121C299.7 119 272.3 113 245.2 105C218 97 191 87 163.8 77C136.7 67 109.3 57 82 60C54.7 63 27.3 79 13.7 87L0 95Z" fill="#3c80ff"></path><path d="M0 367L13.7 363C27.3 359 54.7 351 82 361C109.3 371 136.7 399 163.8 409C191 419 218 411 245.2 416C272.3 421 299.7 439 327 445C354.3 451 381.7 445 409 426C436.3 407 463.7 375 491 368C518.3 361 545.7 379 573 376C600.3 373 627.7 349 654.8 357C682 365 709 405 736.2 408C763.3 411 790.7 377 818 361C845.3 345 872.7 347 886.3 348L900 349L900 215L886.3 228C872.7 241 845.3 267 818 280C790.7 293 763.3 293 736.2 275C709 257 682 221 654.8 228C627.7 235 600.3 285 573 292C545.7 299 518.3 263 491 262C463.7 261 436.3 295 409 317C381.7 339 354.3 349 327 341C299.7 333 272.3 307 245.2 293C218 279 191 277 163.8 273C136.7 269 109.3 263 82 262C54.7 261 27.3 265 13.7 267L0 269Z" fill="#0066ff"></path><path d="M0 499L13.7 501C27.3 503 54.7 507 82 518C109.3 529 136.7 547 163.8 553C191 559 218 553 245.2 549C272.3 545 299.7 543 327 539C354.3 535 381.7 529 409 526C436.3 523 463.7 523 491 523C518.3 523 545.7 523 573 521C600.3 519 627.7 515 654.8 518C682 521 709 531 736.2 533C763.3 535 790.7 529 818 529C845.3 529 872.7 535 886.3 538L900 541L900 347L886.3 346C872.7 345 845.3 343 818 359C790.7 375 763.3 409 736.2 406C709 403 682 363 654.8 355C627.7 347 600.3 371 573 374C545.7 377 518.3 359 491 366C463.7 373 436.3 405 409 424C381.7 443 354.3 449 327 443C299.7 437 272.3 419 245.2 414C218 409 191 417 163.8 407C136.7 397 109.3 369 82 359C54.7 349 27.3 357 13.7 361L0 365Z" fill="#0059dd"></path><path d="M0 601L13.7 601C27.3 601 54.7 601 82 601C109.3 601 136.7 601 163.8 601C191 601 218 601 245.2 601C272.3 601 299.7 601 327 601C354.3 601 381.7 601 409 601C436.3 601 463.7 601 491 601C518.3 601 545.7 601 573 601C600.3 601 627.7 601 654.8 601C682 601 709 601 736.2 601C763.3 601 790.7 601 818 601C845.3 601 872.7 601 886.3 601L900 601L900 539L886.3 536C872.7 533 845.3 527 818 527C790.7 527 763.3 533 736.2 531C709 529 682 519 654.8 516C627.7 513 600.3 517 573 519C545.7 521 518.3 521 491 521C463.7 521 436.3 521 409 524C381.7 527 354.3 533 327 537C299.7 541 272.3 543 245.2 547C218 551 191 557 163.8 551C136.7 545 109.3 527 82 516C54.7 505 27.3 501 13.7 499L0 497Z" fill="#004cbb"></path></svg>