<svg id="visual" viewBox="0 0 900 600" width="900" height="600" xmlns="http://www.w3.org/2000/svg" xmlns:xlink="http://www.w3.org/1999/xlink" version="1.1"><rect x="0" y="0" width="900" height="600" fill="#002233"></rect><path d="M0 433L21.5 436C43 439 86 445 128.8 460C171.7 475 214.3 499 257.2 489.5C300 480 343 437 385.8 434.3C428.7 431.7 471.3 469.3 514.2 476C557 482.7 600 458.3 642.8 448.3C685.7 438.3 728.3 442.7 771.2 435.8C814 429 857 411 878.5 402L900 393L900 601L878.5 601C857 601 814 601 771.2 601C728.3 601 685.7 601 642.8 601C600 601 557 601 514.2 601C471.3 601 428.7 601 385.8 601C343 601 300 601 257.2 601C214.3 601 171.7 601 128.8 601C86 601 43 601 21.5 601L0 601Z" fill="#0066FF" stroke-linecap="round" stroke-linejoin="miter"></path></svg>